<?xml version="1.0" encoding="UTF-8"?>
<svg version="1.1" xmlns="http://www.w3.org/2000/svg" width="512" height="512">
<path d="M0 0 C0.89115509 -0.00974854 1.78231018 -0.01949707 2.70046997 -0.02954102 C22.6295645 -0.20261362 41.87011372 0.05359185 61.4453125 4.23828125 C62.34491699 4.42551758 63.24452148 4.61275391 64.17138672 4.80566406 C104.38108608 13.40135021 143.06774683 32.83861645 173.078125 61.0234375 C175.10878403 62.92341056 177.18372368 64.71074574 179.3203125 66.48828125 C221.74551422 103.6427349 247.95217316 162.57278962 252.4453125 218.23828125 C252.82304923 225.33770818 252.83473477 232.44312242 252.8203125 239.55078125 C252.82010101 240.5157251 252.81988953 241.48066895 252.81967163 242.47485352 C252.784985 258.38138464 251.77165267 273.63700788 248.4453125 289.23828125 C248.26339355 290.12193359 248.08147461 291.00558594 247.89404297 291.91601562 C241.7946502 320.80500731 230.12415502 348.86099511 213.4453125 373.23828125 C212.83888916 374.13546875 212.83888916 374.13546875 212.22021484 375.05078125 C206.18551848 383.92941498 199.56385276 392.20841272 192.4453125 400.23828125 C191.96304199 400.78371582 191.48077148 401.32915039 190.98388672 401.89111328 C151.36793133 446.4214861 93.99891401 475.43130619 34.4453125 480.23828125 C27.34592737 480.61601576 20.2404391 480.62838584 13.1328125 480.61328125 C12.16687164 480.61273743 11.20093079 480.6121936 10.20571899 480.6116333 C-13.86770459 480.54950962 -36.47250787 477.20912492 -59.5546875 470.23828125 C-60.38983887 469.98739746 -61.22499023 469.73651367 -62.08544922 469.47802734 C-93.91732372 459.67439002 -123.90332596 442.26007183 -148.1875 419.453125 C-150.21815903 417.55315194 -152.29309868 415.76581676 -154.4296875 413.98828125 C-196.85488922 376.8338276 -223.06154816 317.90377288 -227.5546875 262.23828125 C-227.93242423 255.13885432 -227.94410977 248.03344008 -227.9296875 240.92578125 C-227.92947601 239.9608374 -227.92926453 238.99589355 -227.92904663 238.00170898 C-227.89436 222.09517786 -226.88102767 206.83955462 -223.5546875 191.23828125 C-223.37276855 190.35462891 -223.19084961 189.47097656 -223.00341797 188.56054688 C-214.29954167 147.33575297 -194.23889518 109.03080594 -165.5546875 78.23828125 C-164.34130531 76.84683459 -163.13270947 75.45119486 -161.9296875 74.05078125 C-156.23633276 67.55151785 -150.15601857 61.95058308 -143.41015625 56.54296875 C-141.61883177 55.0971665 -139.84698544 53.62651966 -138.10546875 52.12109375 C-101.18580685 20.47566927 -48.67503438 0.44395476 0 0 Z M-2.5546875 38.23828125 C-3.51761719 38.91310547 -3.51761719 38.91310547 -4.5 39.6015625 C-34.79909905 63.33790123 -47.70606782 117.18141998 -52.21875 153.0234375 C-52.32960937 154.08433594 -52.44046875 155.14523438 -52.5546875 156.23828125 C-21.91669367 166.45094586 46.90390532 166.41875031 77.4453125 156.23828125 C72.17433993 118.28727871 60.58344999 64.65432241 28.6328125 39.05078125 C27.25349628 38.08914529 25.85970776 37.14753534 24.4453125 36.23828125 C23.5171875 35.59890625 22.5890625 34.95953125 21.6328125 34.30078125 C12.67314289 31.31422471 4.93736045 32.73940077 -2.5546875 38.23828125 Z M73.4453125 42.23828125 C74.15494141 43.49705078 74.15494141 43.49705078 74.87890625 44.78125 C92.67407041 76.89734951 103.06836053 112.5557565 108.83984375 148.6953125 C109.03964844 149.53449219 109.23945313 150.37367188 109.4453125 151.23828125 C113.91918607 153.47521803 120.45959828 150.74295289 125.2578125 149.80078125 C125.94604095 149.66712158 126.63426941 149.53346191 127.34335327 149.39575195 C148.46470342 145.26308172 169.15520133 139.40908359 189.4453125 132.23828125 C182.48501374 120.99304857 175.09869622 110.65761149 166.046875 101.02734375 C163.88207625 98.70652347 161.80618481 96.34828549 159.7578125 93.92578125 C156.29078554 89.95534522 152.50705177 86.58970046 148.4453125 83.23828125 C147.94563965 82.81562988 147.4459668 82.39297852 146.93115234 81.95751953 C132.14625611 69.47529594 116.02554174 59.31111521 98.4453125 51.23828125 C97.82785156 50.95227051 97.21039063 50.66625977 96.57421875 50.37158203 C89.02277095 46.90518012 81.54207505 44.12201784 73.4453125 42.23828125 Z M-85.5546875 57.23828125 C-86.15619629 57.55909668 -86.75770508 57.87991211 -87.37744141 58.21044922 C-108.63167361 69.62293441 -129.33478646 85.42037013 -144.5546875 104.23828125 C-144.99135742 104.7679248 -145.42802734 105.29756836 -145.87792969 105.84326172 C-152.61249436 114.0139712 -158.88464282 122.28294598 -164.5546875 131.23828125 C-143.74345692 145.11243497 -109.71089532 148.04918096 -85.5546875 152.23828125 C-83.89589258 146.86472024 -82.73100724 141.44598622 -81.60229492 135.93847656 C-74.89555312 103.32023447 -65.4646719 71.15625457 -48.5546875 42.23828125 C-60.44203704 42.23828125 -75.24080813 51.66970414 -85.5546875 57.23828125 Z M-179.5546875 161.23828125 C-183.9742041 172.38579047 -187.84428056 183.54610737 -190.5546875 195.23828125 C-190.85318604 196.520979 -190.85318604 196.520979 -191.15771484 197.82958984 C-200.13465687 238.50888571 -194.69243046 280.84485742 -179.5546875 319.23828125 C-178.78318359 318.97724609 -178.01167969 318.71621094 -177.21679688 318.44726562 C-149.39395887 309.09656492 -121.49740971 301.72569777 -92.54711914 296.68383789 C-90.56527641 296.4274528 -90.56527641 296.4274528 -89.5546875 295.23828125 C-89.64883603 292.41599182 -89.80320448 289.61409135 -89.984375 286.796875 C-90.7617119 272.80749335 -90.70666855 258.8153115 -90.68505859 244.80981445 C-90.67936711 241.05760094 -90.68273794 237.30545852 -90.68851089 233.55324745 C-90.7098394 217.09004159 -90.52956295 200.67903392 -89.5546875 184.23828125 C-90.48812988 184.068125 -91.42157227 183.89796875 -92.38330078 183.72265625 C-122.13546748 178.26543193 -150.96715473 171.29281638 -179.5546875 161.23828125 Z M197.1484375 163.3984375 C170.00852777 172.77573846 142.7555998 179.35837809 114.4453125 184.23828125 C114.5160498 185.43122803 114.58678711 186.6241748 114.65966797 187.85327148 C115.53249384 203.83525558 115.6002999 219.79740177 115.57568359 235.79711914 C115.56998171 239.55048335 115.57337004 243.30377665 115.57913589 247.05713844 C115.59994573 263.14079476 115.45754228 279.17979768 114.4453125 295.23828125 C118.45651668 296.65237281 122.3577279 297.69696314 126.5390625 298.46484375 C128.30902588 298.79911377 128.30902588 298.79911377 130.11474609 299.14013672 C131.37883301 299.37877441 132.64291992 299.61741211 133.9453125 299.86328125 C157.96883997 304.51549863 181.36126274 311.11937882 204.4453125 319.23828125 C208.8648291 308.09077203 212.73490556 296.93045513 215.4453125 285.23828125 C215.64431152 284.38314941 215.84331055 283.52801758 216.04833984 282.64697266 C224.89830816 242.5430622 220.26170304 198.95967285 204.4453125 161.23828125 C202.06091911 161.23828125 199.33693321 162.63459277 197.1484375 163.3984375 Z M-56.5546875 189.23828125 C-59.60077524 199.75506447 -58.70604665 211.70198529 -58.6875 222.55078125 C-58.68817663 223.97696957 -58.68914962 225.40315777 -58.69039917 226.8293457 C-58.69185928 229.79411943 -58.68977666 232.75886268 -58.68505859 235.72363281 C-58.67936237 239.48171923 -58.68265053 243.23973418 -58.68863106 246.99781799 C-58.69228272 249.93559283 -58.69107719 252.87335133 -58.68850327 255.81112671 C-58.68784666 257.19509897 -58.68861684 258.57907282 -58.69098282 259.96304321 C-59.06039747 275.75633943 -59.06039747 275.75633943 -56.5546875 291.23828125 C-54.03380523 291.09326109 -51.51298497 290.94726298 -48.9921875 290.80078125 C-48.30705078 290.76146484 -47.62191406 290.72214844 -46.91601562 290.68164062 C-46.19736328 290.63974609 -45.47871094 290.59785156 -44.73828125 290.5546875 C-43.9778653 290.51036591 -43.21744934 290.46604431 -42.43399048 290.42037964 C-40.40697127 290.29218301 -38.38088125 290.14884466 -36.35568237 289.99453735 C-26.83116515 289.28785945 -17.3647275 289.0750309 -7.81640625 289.0703125 C-6.24103264 289.06708234 -4.66565931 289.06371711 -3.09028625 289.06022644 C0.19478039 289.05428836 3.47982096 289.05238076 6.76489258 289.05297852 C10.07386796 289.05305935 13.38270365 289.04617625 16.69165039 289.0324707 C35.61048987 288.95516437 54.26725864 289.28269435 73.1199646 291.05380249 C75.90115068 291.27444464 78.65686828 291.31280078 81.4453125 291.23828125 C83.9776137 274.96842538 83.71602831 258.63782981 83.64093018 242.2232666 C83.63009225 239.23933307 83.63046273 236.25544564 83.63106823 233.27149582 C83.63079355 230.35087848 83.62526616 227.43028948 83.61806679 224.5096817 C83.61344413 222.4816166 83.61162539 220.45354571 83.60990906 218.42547607 C83.84240147 203.68335918 83.84240147 203.68335918 81.4453125 189.23828125 C78.94528804 189.38370347 76.4452939 189.52962178 73.9453125 189.67578125 C72.93017578 189.73475586 72.93017578 189.73475586 71.89453125 189.79492188 C70.82138672 189.85776367 70.82138672 189.85776367 69.7265625 189.921875 C68.96115646 189.96619659 68.19575043 190.01051819 67.40715027 190.05618286 C65.27236126 190.18743301 63.13830956 190.33087717 61.00483704 190.48202515 C51.35382209 191.14474435 41.75553898 191.40129341 32.08203125 191.40625 C30.555323 191.40948205 29.02861503 191.41284738 27.50190735 191.41633606 C24.3211699 191.42226727 21.14045936 191.42418247 17.9597168 191.42358398 C14.76141652 191.42350318 11.56326086 191.43038363 8.36499023 191.4440918 C-10.57092341 191.52413941 -29.24271207 191.10381732 -48.11947632 189.42276001 C-50.93744061 189.20928589 -53.72985675 189.16162329 -56.5546875 189.23828125 Z M-52.5546875 324.23828125 C-47.4805948 360.77174872 -36.9655803 401.87238466 -13.5546875 431.23828125 C-12.96300781 432.00914062 -12.37132812 432.78 -11.76171875 433.57421875 C-7.71641226 438.55448166 -3.08966964 442.02574078 2.4453125 445.23828125 C3.07695312 445.61339844 3.70859375 445.98851562 4.359375 446.375 C9.44842648 448.48114303 15.81176026 448.15858656 20.94921875 446.36328125 C23.26584949 445.13848865 25.33339367 443.78834998 27.4453125 442.23828125 C28.08726562 441.78839844 28.72921875 441.33851563 29.390625 440.875 C41.12487015 431.68238285 48.44836741 417.56140709 54.4453125 404.23828125 C54.93378662 403.18012207 54.93378662 403.18012207 55.43212891 402.10058594 C66.53228677 377.90862803 74.65328275 350.74651769 77.4453125 324.23828125 C46.80731867 314.02561664 -22.01328032 314.05781219 -52.5546875 324.23828125 Z M110.4453125 328.23828125 C108.78651758 333.61184226 107.62163224 339.03057628 106.49291992 344.53808594 C99.78617812 377.15632803 90.3552969 409.32030793 73.4453125 438.23828125 C80.70196652 436.41721979 87.5796071 434.21061721 94.4453125 431.23828125 C95.3432251 430.85019287 96.2411377 430.46210449 97.16625977 430.06225586 C124.16762661 418.088231 150.78349326 399.31178579 169.4453125 376.23828125 C169.88198242 375.7086377 170.31865234 375.17899414 170.76855469 374.63330078 C177.50311936 366.4625913 183.77526782 358.19361652 189.4453125 349.23828125 C168.6645558 335.38444345 134.74908841 331.97212146 110.4453125 328.23828125 Z M-94.30078125 329.390625 C-94.97550476 329.52562912 -95.65022827 329.66063324 -96.34539795 329.79972839 C-98.56320079 330.2483106 -100.77779044 330.71069412 -102.9921875 331.17578125 C-103.74956207 331.33278503 -104.50693665 331.48978882 -105.28726196 331.65155029 C-125.40606242 335.8422716 -145.17577319 341.3831551 -164.5546875 348.23828125 C-157.59438874 359.48351393 -150.20807122 369.81895101 -141.15625 379.44921875 C-138.99145125 381.77003903 -136.91555981 384.12827701 -134.8671875 386.55078125 C-131.40016054 390.52121728 -127.61642677 393.88686204 -123.5546875 397.23828125 C-123.05501465 397.66093262 -122.5553418 398.08358398 -122.04052734 398.51904297 C-107.25563111 411.00126656 -91.13491674 421.16544729 -73.5546875 429.23828125 C-72.62849609 429.66729736 -72.62849609 429.66729736 -71.68359375 430.10498047 C-64.13214595 433.57138238 -56.65145005 436.35454466 -48.5546875 438.23828125 C-49.02777344 437.39910156 -49.50085938 436.55992187 -49.98828125 435.6953125 C-68.25949154 402.72006133 -78.34718712 366.24680735 -84.5546875 329.23828125 C-88.33409431 327.97847898 -90.39952326 328.6056734 -94.30078125 329.390625 Z " fill="#2F5F8E" transform="translate(243.5546875,15.76171875)"/>
</svg>
