<?xml version="1.0" encoding="UTF-8"?>
<!DOCTYPE svg PUBLIC "-//W3C//DTD SVG 1.1//EN" "http://www.w3.org/Graphics/SVG/1.1/DTD/svg11.dtd">
<!-- Creator: CorelDRAW X7 -->
<svg xmlns="http://www.w3.org/2000/svg" xml:space="preserve" width="162.56mm" height="91.4398mm" version="1.1" style="shape-rendering:geometricPrecision; text-rendering:geometricPrecision; image-rendering:optimizeQuality; fill-rule:evenodd; clip-rule:evenodd"
viewBox="0 0 16256 9144"
 xmlns:xlink="http://www.w3.org/1999/xlink">
 <defs>
  <style type="text/css">
   <![CDATA[
    .fil1 {fill:#2F9ED8}
    .fil3 {fill:#38C6F3}
    .fil0 {fill:url(#id0)}
    .fil2 {fill:url(#id1)}
    .fil8 {fill:url(#id2)}
    .fil7 {fill:url(#id3)}
    .fil4 {fill:url(#id4)}
    .fil6 {fill:url(#id5)}
    .fil5 {fill:url(#id6)}
   ]]>
  </style>
  <linearGradient id="id0" gradientUnits="userSpaceOnUse" x1="8127.73" y1="7044.71" x2="8127.73" y2="0.19">
   <stop offset="0" style="stop-opacity:1; stop-color:#38C6F3"/>
   <stop offset="1" style="stop-opacity:1; stop-color:white"/>
  </linearGradient>
  <linearGradient id="id1" gradientUnits="userSpaceOnUse" x1="8127.73" y1="9144.19" x2="8127.73" y2="7034.17">
   <stop offset="0" style="stop-opacity:1; stop-color:#2F9ED8"/>
   <stop offset="1" style="stop-opacity:1; stop-color:#4B8CCC"/>
  </linearGradient>
  <linearGradient id="id2" gradientUnits="userSpaceOnUse" x1="9542.08" y1="594.66" x2="9542.08" y2="1384.07">
   <stop offset="0" style="stop-opacity:1; stop-color:#D4F4FF"/>
   <stop offset="1" style="stop-opacity:1; stop-color:#A8E9FF"/>
  </linearGradient>
  <linearGradient id="id3" gradientUnits="userSpaceOnUse" x1="6176.78" y1="1863.44" x2="6176.78" y2="2809.67">
   <stop offset="0" style="stop-opacity:1; stop-color:#DEF7FF"/>
   <stop offset="1" style="stop-opacity:1; stop-color:#89DAF5"/>
  </linearGradient>
  <linearGradient id="id4" gradientUnits="userSpaceOnUse" x1="1817.38" y1="5682.36" x2="1817.38" y2="7044.71">
   <stop offset="0" style="stop-opacity:1; stop-color:#DEF7FF"/>
   <stop offset="1" style="stop-opacity:1; stop-color:#7AD3F0"/>
  </linearGradient>
  <linearGradient id="id5" gradientUnits="userSpaceOnUse" x1="8127.73" y1="3660.51" x2="8127.73" y2="5784.93">
   <stop offset="0" style="stop-opacity:1; stop-color:#DEF7FF"/>
   <stop offset="1" style="stop-opacity:1; stop-color:#7ED5F1"/>
  </linearGradient>
  <linearGradient id="id6" gradientUnits="userSpaceOnUse" xlink:href="#id4" x1="12762.5" y1="5676.65" x2="12762.5" y2="7040.14">
  </linearGradient>
 </defs>
 <g id="Layer_x0020_1">
  <metadata id="CorelCorpID_0Corel-Layer"/>
  <g id="_2105918777184">
   <path class="fil0" d="M0 7045c6253,-56 11671,-56 16255,0l0 -7045 -16255 0 0 7045z"/>
   <path class="fil1" d="M16255 7040c-4584,-57 -10002,-57 -16255,0l0 2104 16255 0 0 -2104z"/>
   <path class="fil2" d="M0 7487c0,-192 0,-289 0,-289 1644,-22 3137,-15 4480,20 1491,-42 2773,-42 3846,0 935,-173 2023,-225 3266,-152 250,31 879,32 1889,5 634,1 1559,-10 2774,-31 -3068,109 -4692,147 -4872,115 272,37 491,87 660,153 -646,-17 -1347,1 -2103,53 3821,18 5926,43 6315,73 0,100 0,150 0,150 -230,-24 -908,-8 -2035,49 -2262,85 -3763,148 -4502,188 1401,101 2312,172 2731,210 665,23 1208,67 1629,131 -1455,-53 -2746,-80 -3873,-84 -260,42 -532,133 -816,273 -407,50 -980,70 -1721,58 1212,71 2287,151 3228,242 1127,66 1691,101 1691,101 588,26 1175,62 1763,109 -1120,-31 -2216,-48 -3289,-52 -1774,-39 -2660,-57 -2660,-57 -648,-27 -1112,-38 -1389,-38 262,71 433,145 511,221 -401,44 -1063,100 -1984,168 -474,19 -969,32 -1485,41 138,-49 127,-79 -32,-91 -74,-10 -156,-16 -245,-17 264,-45 653,-62 1168,-53 474,-4 650,-23 526,-54 -439,-13 -547,-32 -324,-59 1094,-54 1508,-116 1246,-183 -275,-102 -132,-156 431,-160 301,-2 332,-32 94,-90 -95,-21 -258,-29 -487,-24 -679,-26 -905,-15 -677,32 597,61 615,80 53,54 -901,-20 -1231,7 -990,83 588,70 764,108 528,110 -665,5 -997,8 -997,8 -265,0 -338,16 -222,49 283,54 326,75 130,64 -854,-25 -1191,-2 -1009,69 219,70 108,92 -332,65 -614,-38 -827,-28 -641,32 287,35 125,69 -484,102 -517,44 -777,64 -781,63 -673,0 -1009,0 -1009,0 0,-372 0,-557 0,-557 1034,-40 1946,-36 2738,11 281,29 220,-10 -184,-117 -745,-160 -821,-202 -224,-125 921,129 1425,139 1510,31 193,-249 474,-340 844,-273 226,53 1121,27 2686,-79 1251,-32 1190,-66 -184,-103 -2077,-102 -2544,-157 -1403,-165 3833,-179 4769,-260 2808,-242 -1926,-65 -3781,-76 -5568,-38 -584,15 -1592,15 -3023,0z"/>
   <path class="fil3" d="M13223 8470c90,8 199,1 325,-20l1220 -70c-220,-20 -498,-27 -835,-22 -216,-47 -464,-49 -747,-5 -209,-12 -339,-27 -391,-47 -168,-8 -296,9 -384,50 -87,29 -345,36 -776,18 -90,1 -279,7 -568,18l1599 85c285,-24 471,-27 557,-7z"/>
   <path class="fil3" d="M1304 8027c366,-3 686,2 960,18 114,-25 375,-36 784,-34 -3,1 -232,-10 -687,-34 -214,22 -349,20 -407,-2 -187,-5 -404,12 -650,52z"/>
   <path class="fil4" d="M0 7045c0,-909 0,-1363 0,-1363 154,92 269,208 347,352 68,107 143,162 225,163 67,14 170,-18 309,-95 106,-88 220,-141 341,-158 122,-25 255,6 396,94 122,122 206,224 250,303 76,107 159,178 250,212 88,30 202,22 339,-23 94,-48 205,-66 332,-56 139,31 259,90 361,180 100,76 205,160 316,253 64,57 121,93 169,110 -2423,19 -3635,28 -3635,28z"/>
   <path class="fil5" d="M16255 7040c0,-909 0,-1363 0,-1363 -295,91 -518,208 -667,352 -131,107 -275,162 -432,163 -130,14 -327,-18 -595,-94 -203,-89 -421,-142 -654,-160 -236,-24 -490,8 -763,95 -234,123 -394,223 -481,302 -146,108 -305,179 -478,213 -170,30 -388,22 -653,-24 -181,-46 -394,-65 -638,-54 -267,29 -498,90 -695,180 -191,75 -393,160 -607,252 -123,57 -230,94 -322,111 4657,18 6985,27 6985,27z"/>
   <path class="fil6" d="M0 4817c0,-363 0,-546 0,-546 5577,545 10995,342 16255,-610 0,392 0,588 0,588 -6723,1837 -12142,2026 -16255,568z"/>
   <path class="fil7" d="M0 2767c0,-602 0,-904 0,-904 3665,280 7783,469 12353,568 -4079,337 -8196,449 -12353,336z"/>
   <path class="fil8" d="M16278 595c-8982,0 -13471,0 -13471,0 3939,895 8429,1029 13471,400 0,-267 0,-400 0,-400z"/>
  </g>
 </g>
</svg>
